<svg width="66" height="40" viewBox="0 0 66 40" fill="none" xmlns="http://www.w3.org/2000/svg">
<g filter="url(#filter0_i_2115_136451)">
<rect x="0.5" width="65" height="40" rx="3" fill="url(#paint0_linear_2115_136451)"/>
</g>
<path d="M11.8115 9.81738V10.9795H11.6748C11.0368 10.9893 10.5225 11.1553 10.1318 11.4775C9.74447 11.7998 9.51172 12.2474 9.43359 12.8203C9.8112 12.4362 10.2881 12.2441 10.8643 12.2441C11.4827 12.2441 11.9743 12.4655 12.3389 12.9082C12.7035 13.3509 12.8857 13.9336 12.8857 14.6562C12.8857 15.1185 12.7848 15.5368 12.583 15.9111C12.3844 16.2855 12.1012 16.5768 11.7334 16.7852C11.3688 16.9935 10.9554 17.0977 10.4932 17.0977C9.74447 17.0977 9.139 16.8372 8.67676 16.3164C8.21777 15.7956 7.98828 15.1006 7.98828 14.2314V13.7236C7.98828 12.9521 8.13314 12.2718 8.42285 11.6826C8.71582 11.0902 9.13411 10.6328 9.67773 10.3105C10.2246 9.98503 10.8577 9.82064 11.5771 9.81738H11.8115ZM10.4346 13.377C10.2067 13.377 10 13.4372 9.81445 13.5576C9.62891 13.6748 9.49219 13.8311 9.4043 14.0264V14.4561C9.4043 14.9281 9.49707 15.2975 9.68262 15.5645C9.86816 15.8281 10.1286 15.96 10.4639 15.96C10.7666 15.96 11.0107 15.8411 11.1963 15.6035C11.3851 15.3626 11.4795 15.0518 11.4795 14.6709C11.4795 14.2835 11.3851 13.971 11.1963 13.7334C11.0075 13.4958 10.7536 13.377 10.4346 13.377ZM18.5596 10.6816L15.8105 17H14.3213L17.0752 11.0332H13.54V9.89062H18.5596V10.6816ZM19.6777 13.5039L20.0879 9.89062H24.0723V11.0674H21.2451L21.0693 12.5957C21.4046 12.4167 21.7611 12.3271 22.1387 12.3271C22.8158 12.3271 23.3464 12.5371 23.7305 12.957C24.1146 13.377 24.3066 13.9645 24.3066 14.7197C24.3066 15.1787 24.209 15.5905 24.0137 15.9551C23.8216 16.3164 23.5449 16.598 23.1836 16.7998C22.8223 16.9984 22.3958 17.0977 21.9043 17.0977C21.4746 17.0977 21.0758 17.0114 20.708 16.8389C20.3402 16.6631 20.0488 16.4173 19.834 16.1016C19.6224 15.7858 19.5101 15.4261 19.4971 15.0225H20.8936C20.9229 15.3187 21.0254 15.5498 21.2012 15.7158C21.3802 15.8786 21.613 15.96 21.8994 15.96C22.2184 15.96 22.4642 15.846 22.6367 15.6182C22.8092 15.387 22.8955 15.0615 22.8955 14.6416C22.8955 14.238 22.7962 13.9287 22.5977 13.7139C22.3991 13.499 22.1175 13.3916 21.7529 13.3916C21.4176 13.3916 21.1458 13.4795 20.9375 13.6553L20.8008 13.7822L19.6777 13.5039ZM26.6455 12.8203H27.3975C27.7555 12.8203 28.0208 12.7308 28.1934 12.5518C28.3659 12.3727 28.4521 12.1351 28.4521 11.8389C28.4521 11.5524 28.3659 11.3294 28.1934 11.1699C28.0241 11.0104 27.7897 10.9307 27.4902 10.9307C27.2201 10.9307 26.9938 11.0055 26.8115 11.1553C26.6292 11.3018 26.5381 11.4938 26.5381 11.7314H25.127C25.127 11.3604 25.2262 11.0283 25.4248 10.7354C25.6266 10.4391 25.9066 10.208 26.2646 10.042C26.626 9.87598 27.0231 9.79297 27.4561 9.79297C28.208 9.79297 28.7972 9.97363 29.2236 10.335C29.6501 10.693 29.8633 11.1878 29.8633 11.8193C29.8633 12.1449 29.764 12.4443 29.5654 12.7178C29.3669 12.9912 29.1064 13.2012 28.7842 13.3477C29.1846 13.4909 29.4824 13.7057 29.6777 13.9922C29.8763 14.2786 29.9756 14.6172 29.9756 15.0078C29.9756 15.6393 29.7445 16.1455 29.2822 16.5264C28.8232 16.9072 28.2145 17.0977 27.4561 17.0977C26.7464 17.0977 26.1654 16.9105 25.7129 16.5361C25.2637 16.1618 25.0391 15.667 25.0391 15.0518H26.4502C26.4502 15.3187 26.5495 15.5368 26.748 15.7061C26.9499 15.8753 27.1973 15.96 27.4902 15.96C27.8255 15.96 28.0876 15.8721 28.2764 15.6963C28.4684 15.5173 28.5645 15.2812 28.5645 14.9883C28.5645 14.2786 28.1738 13.9238 27.3926 13.9238H26.6455V12.8203Z" fill="white"/>
<path d="M51.1531 32.7454H44.9155V21.5356H51.1532L51.1531 32.7454Z" fill="#FF5F00"/>
<path d="M45.311 27.1407C45.311 24.8668 46.3757 22.8412 48.0336 21.5358C46.7786 20.5463 45.2264 20.0092 43.6282 20.0115C39.6913 20.0115 36.5 23.2033 36.5 27.1407C36.5 31.0781 39.6913 34.2699 43.6282 34.2699C45.2265 34.2723 46.7787 33.7352 48.0337 32.7456C46.3759 31.4404 45.311 29.4147 45.311 27.1407Z" fill="#EB001B"/>
<path d="M59.5682 27.1407C59.5682 31.0781 56.3769 34.2699 52.44 34.2699C50.8416 34.2722 49.2892 33.7352 48.0339 32.7456C49.6923 31.4402 50.757 29.4147 50.757 27.1407C50.757 24.8667 49.6923 22.8412 48.0339 21.5358C49.2891 20.5463 50.8415 20.0092 52.4399 20.0115C56.3768 20.0115 59.5681 23.2033 59.5681 27.1407" fill="#F79E1B"/>
<defs>
<filter id="filter0_i_2115_136451" x="0.5" y="0" width="65" height="41" filterUnits="userSpaceOnUse" color-interpolation-filters="sRGB">
<feFlood flood-opacity="0" result="BackgroundImageFix"/>
<feBlend mode="normal" in="SourceGraphic" in2="BackgroundImageFix" result="shape"/>
<feColorMatrix in="SourceAlpha" type="matrix" values="0 0 0 0 0 0 0 0 0 0 0 0 0 0 0 0 0 0 127 0" result="hardAlpha"/>
<feOffset dy="1"/>
<feGaussianBlur stdDeviation="31.5"/>
<feComposite in2="hardAlpha" operator="arithmetic" k2="-1" k3="1"/>
<feColorMatrix type="matrix" values="0 0 0 0 0.955828 0 0 0 0 0.936623 0 0 0 0 1 0 0 0 0.2 0"/>
<feBlend mode="normal" in2="shape" result="effect1_innerShadow_2115_136451"/>
</filter>
<linearGradient id="paint0_linear_2115_136451" x1="11.1351" y1="-9.76644" x2="-1.54046" y2="58.601" gradientUnits="userSpaceOnUse">
<stop stop-color="#FFA346"/>
<stop offset="1" stop-color="#F2E32E"/>
</linearGradient>
</defs>
</svg>
