<svg width="66" height="40" viewBox="0 0 66 40" fill="none" xmlns="http://www.w3.org/2000/svg">
<g filter="url(#filter0_i_2115_136464)">
<rect x="0.5" width="65" height="40" rx="3" fill="url(#paint0_linear_2115_136464)"/>
</g>
<path d="M11.2842 14.1582C10.9163 14.5195 10.4867 14.7002 9.99512 14.7002C9.36686 14.7002 8.86393 14.4854 8.48633 14.0557C8.10872 13.6227 7.91992 13.04 7.91992 12.3076C7.91992 11.8421 8.02083 11.4157 8.22266 11.0283C8.42773 10.6377 8.71257 10.335 9.07715 10.1201C9.44173 9.90202 9.85189 9.79297 10.3076 9.79297C10.7764 9.79297 11.193 9.91016 11.5576 10.1445C11.9222 10.3789 12.2054 10.7158 12.4072 11.1553C12.609 11.5947 12.7116 12.0977 12.7148 12.6641V13.1865C12.7148 14.3714 12.4202 15.3024 11.8311 15.9795C11.2419 16.6566 10.4069 17.0179 9.32617 17.0635L8.97949 17.0684V15.8916L9.29199 15.8867C10.5192 15.8314 11.1833 15.2552 11.2842 14.1582ZM10.3418 13.6211C10.5697 13.6211 10.765 13.5625 10.9277 13.4453C11.0938 13.3281 11.2191 13.1865 11.3037 13.0205V12.4395C11.3037 11.9609 11.2126 11.5898 11.0303 11.3262C10.848 11.0625 10.6038 10.9307 10.2979 10.9307C10.0146 10.9307 9.7819 11.0609 9.59961 11.3213C9.41732 11.5785 9.32617 11.9023 9.32617 12.293C9.32617 12.6803 9.41406 12.9993 9.58984 13.25C9.76888 13.4974 10.0195 13.6211 10.3418 13.6211ZM18.3594 11.7803C18.3594 12.1253 18.2731 12.4313 18.1006 12.6982C17.9281 12.9652 17.6904 13.1784 17.3877 13.3379C17.7327 13.5039 18.0062 13.7334 18.208 14.0264C18.4098 14.3161 18.5107 14.6579 18.5107 15.0518C18.5107 15.6833 18.2959 16.1829 17.8662 16.5508C17.4365 16.9154 16.8522 17.0977 16.1133 17.0977C15.3743 17.0977 14.7884 16.9137 14.3555 16.5459C13.9225 16.1781 13.7061 15.68 13.7061 15.0518C13.7061 14.6579 13.807 14.3145 14.0088 14.0215C14.2106 13.7285 14.4824 13.5007 14.8242 13.3379C14.5215 13.1784 14.2839 12.9652 14.1113 12.6982C13.9421 12.4313 13.8574 12.1253 13.8574 11.7803C13.8574 11.1748 14.0592 10.693 14.4629 10.335C14.8665 9.97363 15.415 9.79297 16.1084 9.79297C16.7985 9.79297 17.3454 9.97201 17.749 10.3301C18.1559 10.6849 18.3594 11.1683 18.3594 11.7803ZM17.0947 14.9492C17.0947 14.64 17.0052 14.3926 16.8262 14.207C16.6471 14.0215 16.4062 13.9287 16.1035 13.9287C15.804 13.9287 15.5648 14.0215 15.3857 14.207C15.2067 14.3893 15.1172 14.6367 15.1172 14.9492C15.1172 15.252 15.2051 15.4961 15.3809 15.6816C15.5566 15.8672 15.8008 15.96 16.1133 15.96C16.4193 15.96 16.6585 15.8704 16.8311 15.6914C17.0068 15.5124 17.0947 15.265 17.0947 14.9492ZM16.9482 11.8486C16.9482 11.5719 16.875 11.3506 16.7285 11.1846C16.582 11.0153 16.3753 10.9307 16.1084 10.9307C15.8447 10.9307 15.6396 11.012 15.4932 11.1748C15.3467 11.3376 15.2734 11.5622 15.2734 11.8486C15.2734 12.1318 15.3467 12.3597 15.4932 12.5322C15.6396 12.7048 15.8464 12.791 16.1133 12.791C16.3802 12.791 16.5853 12.7048 16.7285 12.5322C16.875 12.3597 16.9482 12.1318 16.9482 11.8486ZM24.3018 10.6816L21.5527 17H20.0635L22.8174 11.0332H19.2822V9.89062H24.3018V10.6816ZM25.4199 13.5039L25.8301 9.89062H29.8145V11.0674H26.9873L26.8115 12.5957C27.1468 12.4167 27.5033 12.3271 27.8809 12.3271C28.5579 12.3271 29.0885 12.5371 29.4727 12.957C29.8568 13.377 30.0488 13.9645 30.0488 14.7197C30.0488 15.1787 29.9512 15.5905 29.7559 15.9551C29.5638 16.3164 29.2871 16.598 28.9258 16.7998C28.5645 16.9984 28.138 17.0977 27.6465 17.0977C27.2168 17.0977 26.818 17.0114 26.4502 16.8389C26.0824 16.6631 25.791 16.4173 25.5762 16.1016C25.3646 15.7858 25.2523 15.4261 25.2393 15.0225H26.6357C26.665 15.3187 26.7676 15.5498 26.9434 15.7158C27.1224 15.8786 27.3551 15.96 27.6416 15.96C27.9606 15.96 28.2064 15.846 28.3789 15.6182C28.5514 15.387 28.6377 15.0615 28.6377 14.6416C28.6377 14.238 28.5384 13.9287 28.3398 13.7139C28.1413 13.499 27.8597 13.3916 27.4951 13.3916C27.1598 13.3916 26.888 13.4795 26.6797 13.6553L26.543 13.7822L25.4199 13.5039Z" fill="white"/>
<path d="M44.8869 32.7142H42.9403L44.1569 25.2374H46.1037L44.8869 32.7142Z" fill="white"/>
<path d="M41.3028 25.2374L39.447 30.38L39.2274 29.2726L39.2276 29.273L38.5726 25.9106C38.5726 25.9106 38.4934 25.2374 37.6492 25.2374H34.5812L34.5452 25.364C34.5452 25.364 35.4834 25.5592 36.5814 26.2186L38.2726 32.7144H40.3008L43.3978 25.2374H41.3028Z" fill="white"/>
<path fill-rule="evenodd" clip-rule="evenodd" d="M58.4012 32.7142H56.6138L56.3858 31.6036H53.9112L53.5054 32.7142H51.4762L54.3794 25.7944C54.3794 25.7944 54.5554 25.2372 55.278 25.2372H56.8428L58.4012 32.7142ZM55.4946 27.2714L54.4718 30.0694H56.07L55.4946 27.2714Z" fill="white"/>
<path d="M51.6284 27.0354L51.9062 25.4298C51.9062 25.4298 51.049 25.1038 50.1554 25.1038C49.1894 25.1038 46.8954 25.526 46.8954 27.579C46.8954 29.5106 49.5878 29.5346 49.5878 30.5492C49.5878 31.5638 47.1728 31.382 46.3758 30.7422L46.0864 32.421C46.0864 32.421 46.9556 32.8432 48.2836 32.8432C49.612 32.8432 51.616 32.1554 51.616 30.2834C51.616 28.3394 48.8994 28.1584 48.8994 27.3132C48.8996 26.4678 50.7954 26.5764 51.6284 27.0354Z" fill="white"/>
<path d="M39.2276 29.2728L38.5726 25.9104C38.5726 25.9104 38.4934 25.2372 37.6492 25.2372H34.5812L34.5452 25.3638C34.5452 25.3638 36.0198 25.6694 37.4342 26.8144C38.7866 27.9088 39.2276 29.2728 39.2276 29.2728Z" fill="white"/>
<defs>
<filter id="filter0_i_2115_136464" x="0.5" y="0" width="65" height="41" filterUnits="userSpaceOnUse" color-interpolation-filters="sRGB">
<feFlood flood-opacity="0" result="BackgroundImageFix"/>
<feBlend mode="normal" in="SourceGraphic" in2="BackgroundImageFix" result="shape"/>
<feColorMatrix in="SourceAlpha" type="matrix" values="0 0 0 0 0 0 0 0 0 0 0 0 0 0 0 0 0 0 127 0" result="hardAlpha"/>
<feOffset dy="1"/>
<feGaussianBlur stdDeviation="31.5"/>
<feComposite in2="hardAlpha" operator="arithmetic" k2="-1" k3="1"/>
<feColorMatrix type="matrix" values="0 0 0 0 0.955828 0 0 0 0 0.936623 0 0 0 0 1 0 0 0 0.2 0"/>
<feBlend mode="normal" in2="shape" result="effect1_innerShadow_2115_136464"/>
</filter>
<linearGradient id="paint0_linear_2115_136464" x1="12.2029" y1="-9.56847" x2="-0.215751" y2="57.4132" gradientUnits="userSpaceOnUse">
<stop stop-color="#3B3B3B"/>
<stop offset="1" stop-color="#767676"/>
</linearGradient>
</defs>
</svg>
