<svg width="66" height="40" viewBox="0 0 66 40" fill="none" xmlns="http://www.w3.org/2000/svg">
<g filter="url(#filter0_i_2115_136438)">
<rect x="0.5" width="65" height="40" rx="3" fill="url(#paint0_linear_2115_136438)"/>
</g>
<path d="M12.1582 15.3242H12.9639V16.4619H12.1582V18H10.7471V16.4619H7.83203L7.76855 15.5732L10.7324 10.8906H12.1582V15.3242ZM9.1748 15.3242H10.7471V12.8145L10.6543 12.9756L9.1748 15.3242ZM17.9004 15.3242H18.7061V16.4619H17.9004V18H16.4893V16.4619H13.5742L13.5107 15.5732L16.4746 10.8906H17.9004V15.3242ZM14.917 15.3242H16.4893V12.8145L16.3965 12.9756L14.917 15.3242ZM19.6777 14.5039L20.0879 10.8906H24.0723V12.0674H21.2451L21.0693 13.5957C21.4046 13.4167 21.7611 13.3271 22.1387 13.3271C22.8158 13.3271 23.3464 13.5371 23.7305 13.957C24.1146 14.377 24.3066 14.9645 24.3066 15.7197C24.3066 16.1787 24.209 16.5905 24.0137 16.9551C23.8216 17.3164 23.5449 17.598 23.1836 17.7998C22.8223 17.9984 22.3958 18.0977 21.9043 18.0977C21.4746 18.0977 21.0758 18.0114 20.708 17.8389C20.3402 17.6631 20.0488 17.4173 19.834 17.1016C19.6224 16.7858 19.5101 16.4261 19.4971 16.0225H20.8936C20.9229 16.3187 21.0254 16.5498 21.2012 16.7158C21.3802 16.8786 21.613 16.96 21.8994 16.96C22.2184 16.96 22.4642 16.846 22.6367 16.6182C22.8092 16.387 22.8955 16.0615 22.8955 15.6416C22.8955 15.238 22.7962 14.9287 22.5977 14.7139C22.3991 14.499 22.1175 14.3916 21.7529 14.3916C21.4176 14.3916 21.1458 14.4795 20.9375 14.6553L20.8008 14.7822L19.6777 14.5039ZM29.0381 10.8174V11.9795H28.9014C28.2633 11.9893 27.749 12.1553 27.3584 12.4775C26.971 12.7998 26.7383 13.2474 26.6602 13.8203C27.0378 13.4362 27.5146 13.2441 28.0908 13.2441C28.7093 13.2441 29.2008 13.4655 29.5654 13.9082C29.93 14.3509 30.1123 14.9336 30.1123 15.6562C30.1123 16.1185 30.0114 16.5368 29.8096 16.9111C29.611 17.2855 29.3278 17.5768 28.96 17.7852C28.5954 17.9935 28.182 18.0977 27.7197 18.0977C26.971 18.0977 26.3656 17.8372 25.9033 17.3164C25.4443 16.7956 25.2148 16.1006 25.2148 15.2314V14.7236C25.2148 13.9521 25.3597 13.2718 25.6494 12.6826C25.9424 12.0902 26.3607 11.6328 26.9043 11.3105C27.4512 10.985 28.0843 10.8206 28.8037 10.8174H29.0381ZM27.6611 14.377C27.4333 14.377 27.2266 14.4372 27.041 14.5576C26.8555 14.6748 26.7188 14.8311 26.6309 15.0264V15.4561C26.6309 15.9281 26.7236 16.2975 26.9092 16.5645C27.0947 16.8281 27.3551 16.96 27.6904 16.96C27.9932 16.96 28.2373 16.8411 28.4229 16.6035C28.6117 16.3626 28.7061 16.0518 28.7061 15.6709C28.7061 15.2835 28.6117 14.971 28.4229 14.7334C28.234 14.4958 27.9801 14.377 27.6611 14.377Z" fill="white"/>
<path d="M51.1531 32.7453H44.9155V21.5355H51.1532L51.1531 32.7453Z" fill="#FF5F00"/>
<path d="M45.311 27.1406C45.311 24.8667 46.3757 22.8411 48.0336 21.5358C46.7786 20.5462 45.2264 20.0091 43.6282 20.0115C39.6913 20.0115 36.5 23.2033 36.5 27.1406C36.5 31.078 39.6913 34.2698 43.6282 34.2698C45.2265 34.2722 46.7787 33.7351 48.0337 32.7455C46.3759 31.4404 45.311 29.4147 45.311 27.1406Z" fill="#EB001B"/>
<path d="M59.5682 27.1406C59.5682 31.078 56.3769 34.2698 52.44 34.2698C50.8416 34.2722 49.2892 33.7351 48.0339 32.7455C49.6923 31.4402 50.757 29.4147 50.757 27.1406C50.757 24.8666 49.6923 22.8411 48.0339 21.5358C49.2891 20.5462 50.8415 20.0092 52.4399 20.0115C56.3768 20.0115 59.5681 23.2033 59.5681 27.1406" fill="#F79E1B"/>
<defs>
<filter id="filter0_i_2115_136438" x="0.5" y="0" width="65" height="41" filterUnits="userSpaceOnUse" color-interpolation-filters="sRGB">
<feFlood flood-opacity="0" result="BackgroundImageFix"/>
<feBlend mode="normal" in="SourceGraphic" in2="BackgroundImageFix" result="shape"/>
<feColorMatrix in="SourceAlpha" type="matrix" values="0 0 0 0 0 0 0 0 0 0 0 0 0 0 0 0 0 0 127 0" result="hardAlpha"/>
<feOffset dy="1"/>
<feGaussianBlur stdDeviation="31.5"/>
<feComposite in2="hardAlpha" operator="arithmetic" k2="-1" k3="1"/>
<feColorMatrix type="matrix" values="0 0 0 0 0.955828 0 0 0 0 0.936623 0 0 0 0 1 0 0 0 0.2 0"/>
<feBlend mode="normal" in2="shape" result="effect1_innerShadow_2115_136438"/>
</filter>
<linearGradient id="paint0_linear_2115_136438" x1="11.1351" y1="-9.76644" x2="-1.54046" y2="58.601" gradientUnits="userSpaceOnUse">
<stop stop-color="#6246FF"/>
<stop offset="1" stop-color="#FFB9B9"/>
</linearGradient>
</defs>
</svg>
